<svg version="1.2" xmlns="http://www.w3.org/2000/svg" viewBox="0 0 24 24" width="24" height="24">
	<title>fav-svg</title>
	<defs>
		<clipPath clipPathUnits="userSpaceOnUse" id="cp1">
			<path d="m0 0h24v24h-24z"/>
		</clipPath>
	</defs>
	<style>
		.s0 { fill: #ffffff } 
	</style>
	<g id="Clip-Path" clip-path="url(#cp1)">
		<g id="Layer">
			<path id="Layer" class="s0" d="m11.9 4.9c1-2.3 3.2-3.9 5.8-3.9 3.5 0 5.9 2.9 6.3 6.5 0 0 0.1 0.8-0.2 2.4-0.6 2.2-1.7 4.1-3.4 5.5l-8.5 7.6-8.3-7.6c-1.7-1.4-2.9-3.3-3.4-5.5-0.3-1.6-0.2-2.4-0.2-2.4 0.4-3.6 2.8-6.5 6.3-6.5 2.6 0 4.7 1.6 5.6 3.9z"/>
		</g>
	</g>
</svg>